<svg width="1381" height="1466" viewBox="0 0 1381 1466" fill="none" xmlns="http://www.w3.org/2000/svg">
<g filter="url(#filter0_d_577_53)">
<path d="M1031.56 354.109C880.558 403.609 717.058 467.109 730.557 269.609C744.057 72.1086 570.557 -70.8914 475.558 37.1086C380.559 145.109 172.559 168.109 231.058 372.609C289.557 577.109 191.058 553.109 76.0576 642.609C-38.9431 732.109 -22.9424 986.109 120.058 1017.11C263.058 1048.11 564.865 981.753 518.057 1309.61C655.986 1427.1 959.557 1485.11 1011.56 1390.11C1063.56 1295.11 1008.25 1231.81 1126.56 1142.61C1233.67 1114 1352.06 1167.11 1365.56 1009.11C1379.06 851.109 1216.06 621.109 1281.56 517.109C1347.06 413.109 1182.56 304.609 1031.56 354.109Z" fill="#FF312E"/>
</g>
<defs>
<filter id="filter0_d_577_53" x="0" y="0" width="1380.36" height="1465.64" filterUnits="userSpaceOnUse" color-interpolation-filters="sRGB">
<feFlood flood-opacity="0" result="BackgroundImageFix"/>
<feColorMatrix in="SourceAlpha" type="matrix" values="0 0 0 0 0 0 0 0 0 0 0 0 0 0 0 0 0 0 127 0" result="hardAlpha"/>
<feOffset dx="10" dy="24"/>
<feGaussianBlur stdDeviation="2"/>
<feComposite in2="hardAlpha" operator="out"/>
<feColorMatrix type="matrix" values="0 0 0 0 0.2 0 0 0 0 0.192157 0 0 0 0 0.219608 0 0 0 1 0"/>
<feBlend mode="normal" in2="BackgroundImageFix" result="effect1_dropShadow_577_53"/>
<feBlend mode="normal" in="SourceGraphic" in2="effect1_dropShadow_577_53" result="shape"/>
</filter>
</defs>
</svg>
